<svg width="29" height="20" viewBox="0 0 29 20" fill="none" xmlns="http://www.w3.org/2000/svg">
<path d="M18.3333 1.87546H15.625V0.62543C15.6251 0.459666 15.5594 0.300648 15.4422 0.183357C15.3251 0.066066 15.1662 0.000110658 15.0004 1.48406e-07C14.8347 -0.000110361 14.6756 0.0656331 14.5584 0.182768C14.4411 0.299902 14.3751 0.458833 14.375 0.624596V1.87546H10.625V0.62543C10.6251 0.543352 10.6089 0.462067 10.5776 0.386216C10.5462 0.310365 10.5002 0.241433 10.4422 0.183357C10.3842 0.12528 10.3154 0.0791963 10.2396 0.0477359C10.1638 0.0162755 10.0825 5.48577e-05 10.0004 1.39092e-07C9.83466 -0.00011037 9.67564 0.065633 9.55835 0.182768C9.44106 0.299902 9.37511 0.458833 9.375 0.624596V1.87546H5.625V0.62543C5.62505 0.543352 5.60894 0.462067 5.57758 0.386216C5.54623 0.310365 5.50023 0.241433 5.44224 0.183357C5.38424 0.12528 5.31537 0.0791963 5.23956 0.0477359C5.16375 0.0162755 5.08249 5.48577e-05 5.00042 1.39092e-07C4.83466 -0.00011037 4.67564 0.065633 4.55835 0.182768C4.44106 0.299902 4.37511 0.458833 4.375 0.624596V1.87546H1.66667C1.22478 1.87546 0.800987 2.05094 0.48845 2.36333C0.175913 2.67571 0.000220942 3.09943 0 3.54132V18.3333C0 18.7753 0.175595 19.1993 0.488155 19.5118C0.800716 19.8244 1.22464 20 1.66667 20H18.3333C18.7754 20 19.1993 19.8244 19.5118 19.5118C19.8244 19.1993 20 18.7753 20 18.3333V3.54132C19.9998 3.09943 19.8241 2.67571 19.5115 2.36333C19.199 2.05094 18.7752 1.87546 18.3333 1.87546ZM18.75 18.3341C18.75 18.4445 18.7062 18.5504 18.6283 18.6285C18.5503 18.7066 18.4445 18.7506 18.3342 18.7508H1.66667C1.55616 18.7508 1.45018 18.7069 1.37204 18.6288C1.2939 18.5506 1.25 18.4446 1.25 18.3341V3.54216C1.25022 3.43179 1.29422 3.32602 1.37233 3.24806C1.45045 3.1701 1.5563 3.12631 1.66667 3.12632H4.375V4.37634C4.37489 4.5421 4.44063 4.70112 4.55776 4.81841C4.6749 4.9357 4.83382 5.00166 4.99958 5.00177C5.16534 5.00188 5.32436 4.93614 5.44165 4.819C5.55894 4.70187 5.62489 4.54294 5.625 4.37717V3.12632H9.375V4.37634C9.37489 4.5421 9.44063 4.70112 9.55776 4.81841C9.6749 4.9357 9.83382 5.00166 9.99958 5.00177C10.1653 5.00188 10.3244 4.93614 10.4416 4.819C10.5589 4.70187 10.6249 4.54294 10.625 4.37717V3.12632H14.375V4.37634C14.3749 4.5421 14.4406 4.70112 14.5578 4.81841C14.6749 4.9357 14.8338 5.00166 14.9996 5.00177C15.1653 5.00188 15.3244 4.93614 15.4416 4.819C15.5589 4.70187 15.6249 4.54294 15.625 4.37717V3.12632H18.3333C18.4436 3.12654 18.5492 3.17042 18.6271 3.24836C18.7051 3.32629 18.7489 3.43194 18.7492 3.54216L18.75 18.3341Z" fill="black"/>
<path d="M12.2535 12.25C11.066 12.25 9 11.6836 9 11C9 10.2969 11.066 9.75 12.2535 9.75H16.3021L19.7917 6.31445C19.9896 6.12109 20.3576 6 20.7569 6H22.7083C23.0764 6 23.3437 6.19922 23.2431 6.39844L21.5382 9.75L25.1111 9.75L26.6111 8.625C26.716 8.54688 26.8806 8.5 27.0556 8.5H28.5128C28.7818 8.5 29 8.62305 29 8.79102C29 8.79883 28.9937 8.82422 28.9812 8.84961L27.8889 11L28.9812 13.1504C28.9937 13.1758 29 13.2012 29 13.2266C29 13.377 28.7818 13.5 28.5128 13.5H27.0556C26.8806 13.5 26.716 13.4531 26.6111 13.375L25.1111 12.25L21.5382 12.25L23.2431 15.6016C23.3437 15.8014 23.0764 16 22.7083 16H20.7569C20.3576 16 19.9896 15.8798 19.7917 15.6852L16.3021 12.25H12.2535Z" fill="black"/>
</svg>
