<svg width="31" height="20" viewBox="0 0 31 20" fill="none" xmlns="http://www.w3.org/2000/svg">
<path d="M18.3333 1.87546H15.625V0.62543C15.6251 0.459666 15.5594 0.300648 15.4422 0.183357C15.3251 0.066066 15.1662 0.000110658 15.0004 1.48406e-07C14.8347 -0.000110361 14.6756 0.0656331 14.5584 0.182768C14.4411 0.299902 14.3751 0.458833 14.375 0.624596V1.87546H10.625V0.62543C10.6251 0.543352 10.6089 0.462067 10.5776 0.386216C10.5462 0.310365 10.5002 0.241433 10.4422 0.183357C10.3842 0.12528 10.3154 0.0791963 10.2396 0.0477359C10.1638 0.0162755 10.0825 5.48577e-05 10.0004 1.39092e-07C9.83466 -0.00011037 9.67564 0.065633 9.55835 0.182768C9.44106 0.299902 9.37511 0.458833 9.375 0.624596V1.87546H5.625V0.62543C5.62505 0.543352 5.60894 0.462067 5.57758 0.386216C5.54623 0.310365 5.50023 0.241433 5.44224 0.183357C5.38424 0.12528 5.31537 0.0791963 5.23956 0.0477359C5.16375 0.0162755 5.08249 5.48577e-05 5.00042 1.39092e-07C4.83466 -0.00011037 4.67564 0.065633 4.55835 0.182768C4.44106 0.299902 4.37511 0.458833 4.375 0.624596V1.87546H1.66667C1.22478 1.87546 0.800987 2.05094 0.48845 2.36333C0.175913 2.67571 0.000220942 3.09943 0 3.54132V18.3333C0 18.7753 0.175595 19.1993 0.488155 19.5118C0.800716 19.8244 1.22464 20 1.66667 20H18.3333C18.7754 20 19.1993 19.8244 19.5118 19.5118C19.8244 19.1993 20 18.7753 20 18.3333V3.54132C19.9998 3.09943 19.8241 2.67571 19.5115 2.36333C19.199 2.05094 18.7752 1.87546 18.3333 1.87546ZM18.75 18.3341C18.75 18.4445 18.7062 18.5504 18.6283 18.6285C18.5503 18.7066 18.4445 18.7506 18.3342 18.7508H1.66667C1.55616 18.7508 1.45018 18.7069 1.37204 18.6288C1.2939 18.5506 1.25 18.4446 1.25 18.3341V3.54216C1.25022 3.43179 1.29422 3.32602 1.37233 3.24806C1.45045 3.1701 1.5563 3.12631 1.66667 3.12632H4.375V4.37634C4.37489 4.5421 4.44063 4.70112 4.55776 4.81841C4.6749 4.9357 4.83382 5.00166 4.99958 5.00177C5.16534 5.00188 5.32436 4.93614 5.44165 4.819C5.55894 4.70187 5.62489 4.54294 5.625 4.37717V3.12632H9.375V4.37634C9.37489 4.5421 9.44063 4.70112 9.55776 4.81841C9.6749 4.9357 9.83382 5.00166 9.99958 5.00177C10.1653 5.00188 10.3244 4.93614 10.4416 4.819C10.5589 4.70187 10.6249 4.54294 10.625 4.37717V3.12632H14.375V4.37634C14.3749 4.5421 14.4406 4.70112 14.5578 4.81841C14.6749 4.9357 14.8338 5.00166 14.9996 5.00177C15.1653 5.00188 15.3244 4.93614 15.4416 4.819C15.5589 4.70187 15.6249 4.54294 15.625 4.37717V3.12632H18.3333C18.4436 3.12654 18.5492 3.17042 18.6271 3.24836C18.7051 3.32629 18.7489 3.43194 18.7492 3.54216L18.75 18.3341Z" fill="#0A65D1"/>
<path d="M27.7465 9.75C28.934 9.75 31 10.3164 31 11C31 11.7031 28.934 12.25 27.7465 12.25L23.6979 12.25L20.2083 15.6855C20.0104 15.8789 19.6424 16 19.2431 16H17.2917C16.9236 16 16.6563 15.8008 16.7569 15.6016L18.4618 12.25L14.8889 12.25L13.3889 13.375C13.284 13.4531 13.1194 13.5 12.9444 13.5H11.4872C11.2182 13.5 11 13.377 11 13.209C11 13.2012 11.0063 13.1758 11.0188 13.1504L12.1111 11L11.0188 8.84961C11.0063 8.82422 11 8.79883 11 8.77344C11 8.62305 11.2182 8.5 11.4872 8.5H12.9444C13.1194 8.5 13.284 8.54688 13.3889 8.625L14.8889 9.75H18.4618L16.7569 6.39844C16.6563 6.19863 16.9236 6 17.2917 6L19.2431 6C19.6424 6 20.0104 6.12018 20.2083 6.31484L23.6979 9.75L27.7465 9.75Z" fill="#0A65D1"/>
</svg>
