<svg width="15" height="8" viewBox="0 0 15 8" fill="none" xmlns="http://www.w3.org/2000/svg">
<path d="M6.88244 7.7696C6.95125 7.84066 7.04332 7.89875 7.15072 7.93889C7.25813 7.97903 7.37765 8 7.49898 8C7.62032 8 7.73984 7.97903 7.84724 7.93889C7.95465 7.89875 8.04672 7.84066 8.11553 7.7696L14.8661 0.836743C14.9442 0.756778 14.99 0.663118 14.9985 0.565938C15.0071 0.468757 14.978 0.371773 14.9144 0.285524C14.8509 0.199274 14.7553 0.127057 14.6381 0.0767191C14.5208 0.0263811 14.3865 -0.000152706 14.2495 6.61103e-07H0.748455C0.611827 0.000401918 0.477937 0.027277 0.361185 0.0777355C0.244433 0.128194 0.149235 0.200327 0.0858294 0.286377C0.0224239 0.372427 -0.0067904 0.469139 0.0013282 0.566112C0.00944681 0.663084 0.0545911 0.756648 0.131906 0.836743L6.88244 7.7696Z" fill="#07B0FF"/>
</svg>
