<svg width="35" height="35" viewBox="0 0 35 35" fill="none" xmlns="http://www.w3.org/2000/svg">
<path d="M34.3639 0.636172C35.0964 1.50193 35.1963 2.73396 34.6635 4.33228C34.1308 5.9306 33.2318 7.36243 31.9665 8.62776L27.946 12.6485L31.9416 30.0302C32.0248 30.3466 31.9249 30.6213 31.6419 30.8544L28.4455 33.2518C28.3289 33.3517 28.1708 33.4017 27.971 33.4017C27.9044 33.4017 27.8462 33.3934 27.7962 33.3767C27.5465 33.3268 27.3717 33.1936 27.2718 32.9771L20.3046 20.2905L13.8368 26.7587L15.1603 31.6036C15.2436 31.8866 15.177 32.1447 14.9606 32.3778L12.5632 34.7752C12.4134 34.9251 12.2219 35 11.9889 35H11.9389C11.6892 34.9667 11.4894 34.8585 11.3396 34.6753L6.61987 28.382L0.326907 23.6619C0.143779 23.5454 0.0355663 23.3539 0.00227019 23.0875C-0.0143779 22.8711 0.0605384 22.663 0.227019 22.4632L2.62434 20.0407C2.77417 19.8909 2.96563 19.816 3.1987 19.816C3.29859 19.816 3.36518 19.8243 3.39847 19.841L8.24306 21.1646L14.7108 14.6964L2.02501 7.72871C1.79194 7.59551 1.65043 7.39572 1.60048 7.12934C1.56719 6.86295 1.6421 6.63819 1.82523 6.45505L5.02166 3.25841C5.25473 3.04197 5.50445 2.97538 5.77082 3.05862L22.3773 7.02944L26.3728 3.03365C27.6381 1.76831 29.0698 0.86926 30.668 0.336488C32.2662 -0.196285 33.4982 -0.0963898 34.3639 0.636172Z" fill="#07B0FF"/>
</svg>
