<svg width="15" height="8" viewBox="0 0 15 8" fill="none" xmlns="http://www.w3.org/2000/svg">
<path d="M0.330173 0.305919C0.541647 0.110039 0.828428 0 1.12745 0C1.42648 0 1.71326 0.110039 1.92473 0.305919L7.50681 5.47795L13.0889 0.305919C13.3016 0.115591 13.5864 0.0102748 13.8821 0.0126554C14.1778 0.015036 14.4606 0.124922 14.6697 0.318647C14.8788 0.512371 14.9974 0.774433 15 1.04839C15.0025 1.32235 14.8889 1.58628 14.6834 1.78334L8.30409 7.69408C8.09261 7.88996 7.80583 8 7.50681 8C7.20778 8 6.921 7.88996 6.70953 7.69408L0.330173 1.78334C0.118763 1.5874 0 1.32169 0 1.04463C0 0.767573 0.118763 0.501858 0.330173 0.305919Z" fill="black"/>
</svg>
