<svg width="20" height="17" viewBox="0 0 20 17" fill="none" xmlns="http://www.w3.org/2000/svg">
<path d="M19.1052 0.379026C18.8797 0.221031 18.6253 0.109069 18.3565 0.049537C18.0878 -0.00999532 17.81 -0.0159321 17.5389 0.0320663C17.2679 0.0800646 17.009 0.181057 16.7769 0.329275C16.5449 0.477494 16.3443 0.670034 16.1866 0.895896L8.21894 12.2894L2.99475 8.71623C2.57576 8.42925 2.06006 8.32068 1.56112 8.41442C1.06218 8.50815 0.620865 8.7965 0.334255 9.21604C0.0476457 9.63557 -0.0607788 10.1519 0.0328341 10.6515C0.126447 11.1511 0.414429 11.593 0.833427 11.8799L7.83616 16.6692C8.05184 16.8166 8.29558 16.9179 8.55213 16.9666C8.80868 17.0154 9.07252 17.0107 9.32715 16.9527C9.59874 16.9051 9.85829 16.8044 10.0909 16.6562C10.3236 16.508 10.5247 16.3154 10.6828 16.0892L19.6217 3.30296C19.9403 2.84639 20.0648 2.28185 19.9679 1.7334C19.871 1.18496 19.5606 0.69747 19.1049 0.37807" fill="#07B0FF"/>
</svg>
