<svg width="20" height="12" viewBox="0 0 20 12" fill="none" xmlns="http://www.w3.org/2000/svg">
<path d="M19.5598 11.5411C19.2778 11.8349 18.8954 12 18.4967 12C18.098 12 17.7157 11.8349 17.4337 11.5411L9.99092 3.78308L2.54815 11.5411C2.26457 11.8266 1.88476 11.9846 1.49052 11.981C1.09629 11.9774 0.719168 11.8126 0.44039 11.522C0.161613 11.2314 0.00348282 10.8383 5.72205e-05 10.4274C-0.00336838 10.0165 0.148186 9.62058 0.422075 9.32499L8.92789 0.458879C9.20985 0.165059 9.59222 0 9.99092 0C10.3896 0 10.772 0.165059 11.054 0.458879L19.5598 9.32499C19.8416 9.6189 20 10.0175 20 10.4331C20 10.8486 19.8416 11.2472 19.5598 11.5411Z" fill="#07B0FF"/>
</svg>
