<svg width="10" height="20" viewBox="0 0 10 20" fill="none" xmlns="http://www.w3.org/2000/svg">
<path d="M9.6176 0.440231C9.86245 0.722196 10 1.10457 10 1.50327C10 1.90197 9.86245 2.28434 9.6176 2.56631L3.15257 10.0091L9.6176 17.4518C9.85551 17.7354 9.98716 18.1152 9.98418 18.5095C9.9812 18.9037 9.84385 19.2808 9.60169 19.5596C9.35954 19.8384 9.03196 19.9965 8.68951 19.9999C8.34706 20.0034 8.01715 19.8518 7.77082 19.5779L0.382399 11.0721C0.137549 10.7902 0 10.4078 0 10.0091C0 9.61038 0.137549 9.228 0.382399 8.94604L7.77082 0.440231C8.01575 0.158351 8.34789 0 8.69421 0C9.04053 0 9.37268 0.158351 9.6176 0.440231Z" fill="black"/>
</svg>
